<svg width="1024" height="1024" viewBox="0 0 680 680" xmlns="http://www.w3.org/2000/svg">
  <defs>
    <radialGradient id="bg" cx="38%" cy="32%" r="65%">
      <stop offset="0%" stop-color="#FFE566"/>
      <stop offset="45%" stop-color="#FF8C00"/>
      <stop offset="100%" stop-color="#B83C00"/>
    </radialGradient>
    <radialGradient id="shine" cx="35%" cy="28%" r="48%">
      <stop offset="0%" stop-color="#fff" stop-opacity="0.65"/>
      <stop offset="100%" stop-color="#fff" stop-opacity="0"/>
    </radialGradient>
    <clipPath id="clip">
      <circle cx="340" cy="340" r="278"/>
    </clipPath>
  </defs>
  <circle cx="340" cy="340" r="298" fill="none" stroke="#FF9900" stroke-width="4" opacity="0.25"/>
  <circle cx="340" cy="340" r="288" fill="none" stroke="#FFB800" stroke-width="2" opacity="0.35"/>
  <circle cx="340" cy="340" r="278" fill="url(#bg)"/>
  <g clip-path="url(#clip)">
    <rect x="62" y="295" width="556" height="90" fill="#1a0800" opacity="0.75"/>
    <rect x="75"  y="305" width="18" height="28" rx="3" fill="#FF8C00" opacity="0.9"/>
    <rect x="75"  y="352" width="18" height="28" rx="3" fill="#FF8C00" opacity="0.9"/>
    <rect x="587" y="305" width="18" height="28" rx="3" fill="#FF8C00" opacity="0.9"/>
    <rect x="587" y="352" width="18" height="28" rx="3" fill="#FF8C00" opacity="0.9"/>
    <line x1="62" y1="295" x2="618" y2="295" stroke="#FF6600" stroke-width="1.5" opacity="0.6"/>
    <line x1="62" y1="385" x2="618" y2="385" stroke="#FF6600" stroke-width="1.5" opacity="0.6"/>
  </g>
  <polygon points="300,318 300,362 348,340" fill="#FF4400" opacity="0.95"/>
  <polygon points="318,318 318,362 366,340" fill="#FF6600" opacity="0.85"/>
  <polygon points="300,318 300,362 366,340" fill="none" stroke="#FFB800" stroke-width="2.5" opacity="0.8"/>
  <g transform="translate(200,185)"><polygon points="0,-20 5,-5 20,0 5,5 0,20 -5,5 -20,0 -5,-5" fill="#CC1100"/><circle cx="0" cy="0" r="4" fill="#FF3300"/></g>
  <g transform="translate(340,155)"><polygon points="0,-16 4,-4 16,0 4,4 0,16 -4,4 -16,0 -4,-4" fill="#CC1100"/><circle cx="0" cy="0" r="3" fill="#FF3300"/></g>
  <g transform="translate(480,185)"><polygon points="0,-20 5,-5 20,0 5,5 0,20 -5,5 -20,0 -5,-5" fill="#CC1100"/><circle cx="0" cy="0" r="4" fill="#FF3300"/></g>
  <g transform="translate(200,495)"><polygon points="0,-20 5,-5 20,0 5,5 0,20 -5,5 -20,0 -5,-5" fill="#CC1100"/><circle cx="0" cy="0" r="4" fill="#FF3300"/></g>
  <g transform="translate(340,525)"><polygon points="0,-16 4,-4 16,0 4,4 0,16 -4,4 -16,0 -4,-4" fill="#CC1100"/><circle cx="0" cy="0" r="3" fill="#FF3300"/></g>
  <g transform="translate(480,495)"><polygon points="0,-20 5,-5 20,0 5,5 0,20 -5,5 -20,0 -5,-5" fill="#CC1100"/><circle cx="0" cy="0" r="4" fill="#FF3300"/></g>
  <circle cx="340" cy="340" r="278" fill="url(#shine)"/>
  <ellipse cx="252" cy="228" rx="72" ry="44" fill="white" opacity="0.16" transform="rotate(-28,252,228)"/>
  <ellipse cx="244" cy="218" rx="36" ry="22" fill="white" opacity="0.2" transform="rotate(-28,244,218)"/>
  <circle cx="340" cy="340" r="278" fill="none" stroke="#7a2200" stroke-width="7" opacity="0.5"/>
</svg>
